<svg id="svg" version="1.1" xmlns="http://www.w3.org/2000/svg" xmlns:xlink="http://www.w3.org/1999/xlink" width="400" height="400" viewBox="0, 0, 400,400"><g id="svgg"><path id="path0" d="M39.600 216.800 L 39.600 285.200 52.000 285.200 L 64.400 285.200 64.400 249.990 L 64.400 214.779 77.766 214.890 C 88.140 214.975,91.043 214.892,90.733 214.519 C 88.701 212.073,94.381 209.340,96.800 211.600 L 98.085 212.800 114.842 212.800 C 125.747 212.800,131.600 212.660,131.600 212.400 C 131.600 212.180,131.327 212.000,130.992 212.000 C 130.553 212.000,130.451 211.738,130.622 211.054 C 130.787 210.399,130.663 210.033,130.220 209.863 C 129.763 209.688,129.653 209.330,129.834 208.609 C 129.990 207.985,129.918 207.600,129.643 207.600 C 129.400 207.600,129.200 207.060,129.200 206.400 C 129.200 205.740,129.020 205.200,128.800 205.200 C 128.580 205.200,128.400 204.769,128.400 204.243 C 128.400 203.716,128.152 203.191,127.849 203.074 C 127.500 202.940,127.371 202.487,127.496 201.832 C 127.641 201.072,127.525 200.800,127.057 200.800 C 126.563 200.800,126.474 200.531,126.660 199.600 C 126.849 198.656,126.760 198.400,126.242 198.400 C 125.741 198.400,125.644 198.163,125.836 197.400 C 125.990 196.784,125.917 196.400,125.643 196.400 C 125.400 196.400,125.200 196.130,125.200 195.800 C 125.200 195.272,121.530 195.200,94.568 195.200 L 63.936 195.200 64.200 194.000 L 64.464 192.800 58.304 192.800 C 52.250 192.800,52.130 192.817,51.284 193.789 C 48.840 196.600,44.064 194.188,44.965 190.598 C 45.617 187.998,49.118 187.030,51.105 188.900 C 52.531 190.242,63.834 190.674,64.175 189.400 C 64.293 188.960,64.392 179.555,64.395 168.500 L 64.400 148.400 52.000 148.400 L 39.600 148.400 39.600 216.800 M151.400 176.000 C 151.561 176.260,161.137 176.400,178.824 176.400 C 196.675 176.400,206.000 176.263,206.000 176.000 C 206.000 175.737,196.592 175.600,178.576 175.600 C 160.396 175.600,151.236 175.735,151.400 176.000 M217.600 179.200 C 217.600 179.420,217.870 179.600,218.200 179.600 C 218.530 179.600,218.800 179.420,218.800 179.200 C 218.800 178.980,218.530 178.800,218.200 178.800 C 217.870 178.800,217.600 178.980,217.600 179.200 M296.000 191.193 C 296.000 191.466,305.938 191.600,326.109 191.600 L 356.219 191.600 359.400 194.800 C 361.150 196.560,362.723 198.000,362.896 198.000 C 363.070 198.000,361.636 196.425,359.712 194.500 L 356.212 191.000 326.106 190.893 C 305.867 190.820,296.000 190.919,296.000 191.193 M284.400 193.600 C 284.400 193.820,284.670 194.000,285.000 194.000 C 285.330 194.000,285.600 193.820,285.600 193.600 C 285.600 193.380,285.330 193.200,285.000 193.200 C 284.670 193.200,284.400 193.380,284.400 193.600 M278.800 196.800 C 278.800 197.020,279.070 197.200,279.400 197.200 C 279.730 197.200,280.000 197.020,280.000 196.800 C 280.000 196.580,279.730 196.400,279.400 196.400 C 279.070 196.400,278.800 196.580,278.800 196.800 M269.700 201.865 C 269.035 202.133,269.059 202.800,269.733 202.800 C 270.027 202.800,270.267 202.530,270.267 202.200 C 270.267 201.870,270.252 201.614,270.233 201.632 C 270.215 201.649,269.975 201.754,269.700 201.865 M369.029 204.500 C 370.553 206.095,371.857 207.274,371.927 207.119 C 372.067 206.809,366.980 201.600,366.537 201.600 C 366.384 201.600,367.506 202.905,369.029 204.500 M263.600 205.600 C 263.600 205.820,263.870 206.000,264.200 206.000 C 264.530 206.000,264.800 205.820,264.800 205.600 C 264.800 205.380,264.530 205.200,264.200 205.200 C 263.870 205.200,263.600 205.380,263.600 205.600 M321.200 216.000 C 321.200 216.220,321.470 216.400,321.800 216.400 C 322.130 216.400,322.400 216.220,322.400 216.000 C 322.400 215.780,322.130 215.600,321.800 215.600 C 321.470 215.600,321.200 215.780,321.200 216.000 M91.043 216.290 C 90.565 216.769,90.813 217.200,91.567 217.200 C 91.988 217.200,92.424 217.425,92.535 217.700 C 92.672 218.040,92.747 218.007,92.768 217.596 C 92.803 216.935,91.434 215.899,91.043 216.290 M319.900 217.076 C 319.515 217.176,319.200 217.409,319.200 217.592 C 319.200 217.775,319.560 217.831,320.000 217.716 C 320.440 217.601,320.800 217.348,320.800 217.153 C 320.800 216.959,320.755 216.821,320.700 216.846 C 320.645 216.872,320.285 216.975,319.900 217.076 M315.600 219.200 C 315.600 219.420,315.870 219.600,316.200 219.600 C 316.530 219.600,316.800 219.420,316.800 219.200 C 316.800 218.980,316.530 218.800,316.200 218.800 C 315.870 218.800,315.600 218.980,315.600 219.200 M120.900 225.065 C 120.336 225.293,120.205 227.600,120.756 227.600 C 120.952 227.600,121.186 226.970,121.276 226.200 C 121.366 225.430,121.431 224.814,121.420 224.832 C 121.409 224.849,121.175 224.954,120.900 225.065 M300.400 228.000 C 300.400 228.220,300.670 228.400,301.000 228.400 C 301.330 228.400,301.600 228.220,301.600 228.000 C 301.600 227.780,301.330 227.600,301.000 227.600 C 300.670 227.600,300.400 227.780,300.400 228.000 M212.400 233.877 C 212.400 234.034,214.650 236.436,217.400 239.215 C 220.150 241.995,222.400 244.117,222.400 243.930 C 222.400 243.744,220.150 241.342,217.400 238.592 C 214.650 235.842,212.400 233.720,212.400 233.877 M285.200 236.800 C 285.200 237.020,285.470 237.200,285.800 237.200 C 286.130 237.200,286.400 237.020,286.400 236.800 C 286.400 236.580,286.130 236.400,285.800 236.400 C 285.470 236.400,285.200 236.580,285.200 236.800 M305.200 236.800 C 305.200 237.020,305.470 237.200,305.800 237.200 C 306.130 237.200,306.400 237.020,306.400 236.800 C 306.400 236.580,306.130 236.400,305.800 236.400 C 305.470 236.400,305.200 236.580,305.200 236.800 M290.000 245.600 C 290.000 245.820,290.270 246.000,290.600 246.000 C 290.930 246.000,291.200 245.820,291.200 245.600 C 291.200 245.380,290.930 245.200,290.600 245.200 C 290.270 245.200,290.000 245.380,290.000 245.600 M281.100 250.676 C 280.378 250.864,280.114 251.600,280.767 251.600 C 281.459 251.600,282.400 251.114,282.400 250.757 C 282.400 250.384,282.252 250.375,281.100 250.676 M81.600 253.571 C 81.600 253.775,81.285 254.006,80.900 254.085 C 80.515 254.163,81.155 254.246,82.322 254.268 C 84.369 254.307,84.407 254.288,83.377 253.754 C 82.131 253.108,81.600 253.053,81.600 253.571 M140.000 255.957 C 140.000 256.640,141.503 257.280,141.838 256.739 C 142.007 256.465,141.949 256.384,141.694 256.542 C 141.458 256.688,140.980 256.523,140.632 256.175 C 140.285 255.827,140.000 255.729,140.000 255.957 M78.972 259.008 C 79.190 259.797,79.058 259.813,73.558 259.662 C 69.475 259.550,67.656 259.649,66.961 260.021 L 66.000 260.535 66.000 271.268 L 66.000 282.000 68.987 282.000 L 71.974 282.000 72.087 277.500 L 72.200 273.000 74.100 272.878 C 75.604 272.782,76.000 272.886,76.000 273.378 C 76.000 273.720,76.270 274.000,76.600 274.000 C 76.930 274.000,77.200 274.251,77.200 274.557 C 77.200 274.864,77.467 275.217,77.794 275.342 C 78.253 275.519,78.332 275.984,78.140 277.385 C 77.971 278.619,78.037 279.200,78.346 279.200 C 78.598 279.200,78.800 279.822,78.800 280.600 L 78.800 282.000 82.000 282.000 L 85.200 282.000 85.200 280.843 C 85.200 280.203,84.942 279.586,84.622 279.464 C 84.198 279.301,84.107 278.850,84.282 277.771 C 84.467 276.630,84.367 276.213,83.836 275.916 C 83.326 275.631,83.216 275.236,83.407 274.366 C 83.567 273.640,83.501 273.200,83.232 273.200 C 82.994 273.200,82.800 272.840,82.800 272.400 C 82.800 271.867,82.533 271.600,82.000 271.600 C 81.560 271.600,81.200 271.420,81.200 271.200 C 81.200 270.980,81.478 270.800,81.818 270.800 C 82.862 270.800,84.482 268.890,84.198 267.993 C 84.020 267.433,84.130 267.200,84.573 267.200 C 85.049 267.200,85.200 266.768,85.200 265.400 C 85.200 264.410,85.020 263.600,84.800 263.600 C 84.580 263.600,84.400 263.349,84.400 263.043 C 84.400 262.736,84.130 262.382,83.800 262.255 C 83.470 262.129,83.200 261.749,83.200 261.413 C 83.200 260.983,82.795 260.800,81.839 260.800 C 80.748 260.800,80.307 260.542,79.614 259.500 C 79.100 258.728,78.839 258.528,78.972 259.008 M88.800 270.800 L 88.800 282.000 91.454 282.000 L 94.108 282.000 93.919 274.800 C 93.815 270.840,93.836 267.603,93.965 267.606 C 94.648 267.624,95.196 268.346,94.971 268.932 C 94.793 269.396,94.924 269.600,95.401 269.600 C 95.933 269.600,96.030 269.824,95.836 270.600 C 95.691 271.177,95.757 271.600,95.992 271.600 C 96.217 271.600,96.400 271.920,96.400 272.312 C 96.400 272.703,96.760 273.283,97.200 273.600 C 97.640 273.917,98.000 274.388,98.000 274.646 C 98.000 274.903,98.267 275.217,98.593 275.342 C 98.931 275.472,99.085 275.835,98.950 276.185 C 98.795 276.591,98.947 276.800,99.401 276.800 C 99.933 276.800,100.030 277.024,99.836 277.800 C 99.691 278.377,99.757 278.800,99.992 278.800 C 100.217 278.800,100.400 279.078,100.400 279.418 C 100.400 281.205,102.180 282.000,106.182 282.000 L 110.000 282.000 110.000 270.800 L 110.000 259.600 106.800 259.600 L 103.600 259.600 103.600 266.000 C 103.600 270.000,103.450 272.400,103.200 272.400 C 102.980 272.400,102.800 272.080,102.800 271.688 C 102.800 271.297,102.440 270.717,102.000 270.400 C 101.560 270.083,101.200 269.593,101.200 269.312 C 101.200 269.030,101.020 268.800,100.800 268.800 C 100.580 268.800,100.400 268.440,100.400 268.000 C 100.400 267.540,100.133 267.200,99.773 267.200 C 99.328 267.200,99.220 266.968,99.400 266.400 C 99.585 265.817,99.472 265.600,98.984 265.600 C 98.468 265.600,98.371 265.369,98.564 264.600 C 98.709 264.023,98.643 263.600,98.408 263.600 C 98.183 263.600,98.000 263.280,98.000 262.888 C 98.000 262.497,97.640 261.917,97.200 261.600 C 96.760 261.283,96.400 260.814,96.400 260.558 C 96.400 259.892,95.018 259.612,91.700 259.605 L 88.800 259.600 88.800 270.800 M114.400 270.788 L 114.400 282.000 119.957 282.000 C 124.604 282.000,125.553 281.899,125.752 281.381 C 125.934 280.908,126.324 280.825,127.407 281.028 C 128.557 281.243,128.964 281.134,129.559 280.447 C 129.963 279.981,130.511 279.600,130.775 279.600 C 131.397 279.600,132.400 278.597,132.400 277.975 C 132.400 277.711,132.783 277.161,133.252 276.755 C 133.910 276.184,134.048 275.739,133.859 274.793 C 133.683 273.913,133.780 273.506,134.207 273.342 C 134.904 273.074,135.089 267.200,134.400 267.200 C 134.180 267.200,134.000 266.660,134.000 266.000 C 134.000 265.162,133.805 264.800,133.353 264.800 C 132.892 264.800,132.770 264.558,132.927 263.956 C 133.198 262.922,131.464 261.013,130.567 261.357 C 130.231 261.486,129.866 261.317,129.733 260.970 C 129.603 260.631,129.243 260.451,128.933 260.570 C 128.623 260.689,128.276 260.543,128.162 260.246 C 128.001 259.826,126.453 259.692,121.178 259.641 L 114.400 259.576 114.400 270.788 M75.900 264.395 C 77.498 264.399,78.000 264.544,78.000 265.000 C 78.000 265.330,78.270 265.600,78.600 265.600 C 79.382 265.600,79.384 267.155,78.602 267.454 C 78.274 267.581,78.104 267.845,78.226 268.042 C 78.348 268.239,77.402 268.402,76.124 268.405 C 74.846 268.408,73.395 268.519,72.900 268.652 C 72.037 268.883,72.000 268.790,72.000 266.400 C 72.000 264.010,72.037 263.917,72.900 264.148 C 73.395 264.281,74.745 264.392,75.900 264.395 M125.600 264.582 C 125.600 264.902,126.050 265.614,126.600 266.164 C 127.150 266.714,127.600 267.333,127.600 267.539 C 127.600 267.745,127.846 268.009,128.147 268.124 C 128.945 268.430,128.984 272.354,128.193 272.658 C 127.867 272.783,127.600 273.136,127.600 273.443 C 127.600 273.749,127.420 274.000,127.200 274.000 C 126.980 274.000,126.800 274.360,126.800 274.800 C 126.800 275.333,126.533 275.600,126.000 275.600 C 125.560 275.600,125.200 275.780,125.200 276.000 C 125.200 276.220,124.859 276.400,124.443 276.400 C 124.026 276.400,123.582 276.670,123.455 277.000 C 123.176 277.728,120.773 277.813,120.080 277.120 C 119.749 276.789,119.600 274.751,119.600 270.538 L 119.600 264.437 122.300 264.297 C 123.785 264.220,125.135 264.121,125.300 264.078 C 125.465 264.035,125.600 264.262,125.600 264.582 " stroke="none" fill="#0a466c" fill-rule="evenodd"></path><path id="path1" d="M178.917 173.503 L 150.035 173.605 141.597 182.003 L 133.160 190.400 101.244 190.400 C 59.565 190.400,52.698 190.199,51.196 188.935 C 48.085 186.318,43.703 189.185,45.219 192.845 C 46.222 195.267,49.413 195.826,51.212 193.895 L 52.046 193.000 93.223 193.146 C 128.259 193.270,134.400 193.208,134.400 192.733 C 134.400 192.426,138.145 188.446,142.722 183.887 L 151.044 175.600 178.433 175.600 C 205.222 175.600,205.836 175.617,206.391 176.388 C 206.787 176.936,207.238 177.105,207.879 176.944 C 208.537 176.779,208.800 176.887,208.800 177.319 C 208.800 177.728,209.060 177.857,209.600 177.716 C 210.156 177.570,210.400 177.704,210.400 178.153 C 210.400 178.509,210.630 178.800,210.912 178.800 C 211.193 178.800,211.679 179.154,211.991 179.588 C 212.387 180.136,212.838 180.305,213.479 180.144 C 214.166 179.972,214.400 180.084,214.400 180.584 C 214.400 181.072,214.617 181.185,215.200 181.000 C 215.768 180.820,216.000 180.928,216.000 181.373 C 216.000 181.718,216.255 182.000,216.567 182.000 C 216.879 182.000,218.544 182.836,220.267 183.858 C 221.990 184.879,223.985 186.049,224.700 186.458 C 229.308 189.089,229.860 189.406,235.000 192.380 C 236.980 193.526,238.771 194.629,238.980 194.832 C 239.189 195.034,239.684 195.200,240.080 195.200 C 240.476 195.200,240.800 195.470,240.800 195.800 C 240.800 196.130,241.030 196.400,241.312 196.400 C 241.593 196.400,242.079 196.754,242.391 197.188 C 242.787 197.736,243.238 197.905,243.879 197.744 C 244.566 197.572,244.800 197.684,244.800 198.184 C 244.800 198.672,245.017 198.785,245.600 198.600 C 246.168 198.420,246.400 198.528,246.400 198.973 C 246.400 199.318,246.663 199.600,246.984 199.600 C 247.965 199.600,250.380 200.967,250.390 201.529 C 250.398 201.958,252.411 202.034,261.000 201.929 C 270.931 201.808,273.517 202.004,270.200 202.626 C 269.336 202.788,268.800 203.120,268.800 203.491 C 268.800 203.896,268.538 204.025,268.000 203.884 C 267.460 203.743,267.200 203.872,267.200 204.281 C 267.200 204.723,266.937 204.821,266.227 204.643 C 265.480 204.455,265.195 204.584,265.000 205.199 C 264.860 205.640,264.398 206.000,263.973 206.000 C 263.548 206.000,263.200 206.226,263.200 206.502 C 263.200 207.107,260.981 208.159,260.427 207.817 C 260.211 207.683,259.744 208.019,259.387 208.563 C 259.011 209.138,258.501 209.460,258.170 209.333 C 257.822 209.200,257.600 209.365,257.600 209.757 C 257.600 210.111,257.330 210.400,257.000 210.400 C 256.670 210.400,256.400 210.572,256.400 210.782 C 256.400 210.992,255.770 211.282,255.000 211.426 C 254.230 211.571,253.600 211.894,253.600 212.145 C 253.600 212.484,233.693 212.607,175.764 212.627 L 97.928 212.653 96.722 211.527 C 94.813 209.744,92.111 210.349,90.767 212.862 C 90.276 213.779,91.240 216.287,92.230 216.667 C 92.544 216.787,92.800 217.136,92.800 217.443 C 92.800 218.626,95.158 218.076,96.464 216.588 L 97.704 215.175 176.236 215.288 C 250.643 215.394,254.794 215.363,255.272 214.700 C 255.550 214.315,256.007 214.000,256.288 214.000 C 256.570 214.000,256.800 213.718,256.800 213.373 C 256.800 212.928,257.032 212.820,257.600 213.000 C 258.183 213.185,258.400 213.072,258.400 212.584 C 258.400 212.084,258.634 211.972,259.321 212.144 C 259.962 212.305,260.413 212.136,260.809 211.588 C 261.121 211.154,261.607 210.800,261.888 210.800 C 262.170 210.800,262.400 210.574,262.400 210.298 C 262.400 209.656,264.503 208.711,265.273 209.007 C 265.641 209.148,266.028 208.857,266.317 208.223 C 266.617 207.564,266.987 207.297,267.388 207.451 C 267.750 207.590,268.004 207.464,268.010 207.143 C 268.020 206.570,270.423 205.200,271.416 205.200 C 271.737 205.200,272.000 204.918,272.000 204.573 C 272.000 204.128,272.232 204.020,272.800 204.200 C 273.384 204.385,273.600 204.272,273.600 203.780 C 273.600 203.286,273.831 203.167,274.470 203.334 C 275.044 203.484,275.569 203.297,276.014 202.784 C 276.673 202.024,277.691 202.005,321.844 201.903 L 367.000 201.800 369.500 204.293 C 370.875 205.664,372.000 206.969,372.000 207.193 C 372.000 207.461,376.764 207.600,386.000 207.600 L 400.000 207.600 400.000 205.981 L 400.000 204.363 386.363 204.421 L 372.727 204.480 371.563 203.365 C 370.924 202.752,370.400 202.149,370.400 202.025 C 370.400 201.901,377.060 201.853,385.200 201.918 L 400.000 202.037 400.000 200.618 L 400.000 199.200 383.694 199.200 L 367.389 199.200 362.094 193.895 C 359.182 190.977,356.800 188.367,356.800 188.095 C 356.800 187.706,350.195 187.600,326.000 187.600 C 298.300 187.600,295.200 187.663,295.200 188.227 C 295.200 188.672,294.968 188.780,294.400 188.600 C 293.851 188.426,293.600 188.528,293.600 188.926 C 293.600 189.526,292.397 190.101,291.000 190.169 C 290.560 190.191,290.020 190.620,289.800 191.124 C 289.541 191.716,289.154 191.975,288.700 191.857 C 288.261 191.743,288.000 191.901,288.000 192.281 C 288.000 192.723,287.737 192.821,287.027 192.643 C 286.280 192.455,285.995 192.584,285.800 193.199 C 285.660 193.640,285.198 194.000,284.773 194.000 C 284.328 194.000,284.000 194.274,284.000 194.647 C 284.000 195.096,283.756 195.230,283.200 195.084 C 282.660 194.943,282.400 195.072,282.400 195.481 C 282.400 195.923,282.137 196.021,281.427 195.843 C 280.680 195.655,280.395 195.784,280.200 196.399 C 280.060 196.840,279.598 197.200,279.173 197.200 C 278.728 197.200,278.400 197.474,278.400 197.847 C 278.400 198.296,278.156 198.430,277.600 198.284 C 277.080 198.148,276.800 198.272,276.800 198.637 C 276.800 199.109,274.732 199.200,264.000 199.200 C 253.268 199.200,251.200 199.109,251.200 198.637 C 251.200 198.272,250.920 198.148,250.400 198.284 C 249.862 198.425,249.600 198.296,249.600 197.891 C 249.600 197.520,249.064 197.188,248.200 197.026 C 247.430 196.882,246.800 196.592,246.800 196.382 C 246.800 196.172,246.530 196.000,246.200 196.000 C 245.870 196.000,245.600 195.747,245.600 195.437 C 245.600 195.099,245.321 194.947,244.900 195.057 C 244.446 195.175,244.058 194.915,243.796 194.319 C 243.553 193.764,243.113 193.448,242.686 193.520 C 242.297 193.586,241.489 193.292,240.890 192.867 C 240.290 192.442,239.125 191.713,238.300 191.247 C 234.933 189.346,232.458 187.921,227.800 185.200 C 225.820 184.044,223.570 182.735,222.800 182.292 C 222.030 181.849,220.860 181.150,220.200 180.738 C 219.540 180.326,218.691 179.882,218.313 179.751 C 217.936 179.621,217.518 179.173,217.386 178.756 C 217.205 178.184,216.907 178.058,216.173 178.243 C 215.463 178.421,215.200 178.323,215.200 177.881 C 215.200 177.472,214.940 177.343,214.400 177.484 C 213.844 177.630,213.600 177.496,213.600 177.047 C 213.600 176.691,213.337 176.400,213.016 176.400 C 212.023 176.400,209.620 175.030,209.610 174.457 C 209.604 174.145,209.350 174.010,209.011 174.141 C 208.686 174.265,208.281 174.149,208.111 173.883 C 207.872 173.511,201.150 173.424,178.917 173.503 M359.706 194.494 C 361.628 196.416,363.200 198.261,363.200 198.594 C 363.200 199.131,358.610 199.200,322.767 199.200 C 291.550 199.200,282.370 199.091,282.493 198.721 C 282.699 198.102,285.590 196.440,286.500 196.417 C 286.885 196.408,287.200 196.118,287.200 195.773 C 287.200 195.328,287.432 195.220,288.000 195.400 C 288.583 195.585,288.800 195.472,288.800 194.984 C 288.800 194.484,289.034 194.372,289.721 194.544 C 290.362 194.705,290.813 194.536,291.209 193.988 C 291.521 193.554,292.007 193.200,292.288 193.200 C 292.570 193.200,292.800 192.909,292.800 192.553 C 292.800 192.104,293.044 191.970,293.600 192.116 C 294.141 192.257,294.400 192.128,294.400 191.716 C 294.400 191.304,294.659 191.174,295.200 191.316 C 295.640 191.431,296.000 191.359,296.000 191.155 C 296.000 190.931,307.855 190.827,326.106 190.893 L 356.212 191.000 359.706 194.494 M322.400 216.100 C 322.400 216.265,322.040 216.400,321.600 216.400 C 321.160 216.400,320.800 216.626,320.800 216.902 C 320.800 217.558,318.689 218.486,317.892 218.180 C 317.488 218.025,317.181 218.231,317.009 218.771 C 316.863 219.233,316.404 219.600,315.973 219.600 C 315.548 219.600,315.200 219.826,315.200 220.102 C 315.200 220.707,312.981 221.759,312.427 221.417 C 312.211 221.283,311.744 221.619,311.387 222.163 C 311.011 222.738,310.501 223.060,310.170 222.933 C 309.822 222.800,309.600 222.965,309.600 223.357 C 309.600 223.711,309.330 224.000,309.000 224.000 C 308.670 224.000,308.400 224.172,308.400 224.382 C 308.400 224.592,307.770 224.882,307.000 225.026 C 306.136 225.188,305.600 225.520,305.600 225.891 C 305.600 226.296,305.338 226.425,304.800 226.284 C 304.260 226.143,304.000 226.272,304.000 226.681 C 304.000 227.123,303.737 227.221,303.027 227.043 C 302.280 226.855,301.995 226.984,301.800 227.599 C 301.660 228.040,301.198 228.400,300.773 228.400 C 300.348 228.400,300.000 228.626,300.000 228.902 C 300.000 229.507,297.781 230.559,297.227 230.217 C 297.011 230.083,296.544 230.419,296.187 230.963 C 295.811 231.538,295.301 231.860,294.970 231.733 C 294.622 231.600,294.400 231.765,294.400 232.157 C 294.400 232.511,294.130 232.800,293.800 232.800 C 293.470 232.800,293.200 232.972,293.200 233.182 C 293.200 233.392,292.570 233.682,291.800 233.826 C 290.936 233.988,290.400 234.320,290.400 234.691 C 290.400 235.096,290.138 235.225,289.600 235.084 C 289.060 234.943,288.800 235.072,288.800 235.481 C 288.800 235.923,288.537 236.021,287.827 235.843 C 287.080 235.655,286.795 235.784,286.600 236.399 C 286.460 236.840,285.998 237.200,285.573 237.200 C 285.148 237.200,284.800 237.426,284.800 237.702 C 284.800 238.307,282.581 239.359,282.027 239.017 C 281.811 238.883,281.344 239.219,280.987 239.763 C 280.611 240.338,280.101 240.660,279.770 240.533 C 279.449 240.410,279.200 240.552,279.200 240.857 C 279.200 241.310,274.531 241.388,251.100 241.326 L 223.000 241.252 214.925 232.926 L 206.849 224.600 164.325 224.748 C 117.607 224.911,121.200 224.766,121.200 226.486 L 121.200 227.725 163.527 227.498 L 205.855 227.271 214.127 235.400 C 218.677 239.871,222.400 243.725,222.400 243.965 C 222.400 244.274,230.714 244.400,251.200 244.400 C 277.396 244.400,280.000 244.342,280.000 243.757 C 280.000 243.285,280.246 243.175,280.921 243.344 C 281.562 243.505,282.013 243.336,282.409 242.788 C 282.721 242.354,283.207 242.000,283.488 242.000 C 283.770 242.000,284.000 241.774,284.000 241.498 C 284.000 240.834,286.115 239.916,286.927 240.228 C 287.384 240.403,287.642 240.173,287.830 239.424 C 288.030 238.625,288.272 238.432,288.846 238.615 C 289.380 238.784,289.600 238.658,289.600 238.184 C 289.600 237.684,289.834 237.572,290.521 237.744 C 291.162 237.905,291.613 237.736,292.009 237.188 C 292.321 236.754,292.807 236.400,293.088 236.400 C 293.370 236.400,293.600 236.118,293.600 235.773 C 293.600 235.328,293.832 235.220,294.400 235.400 C 294.983 235.585,295.200 235.472,295.200 234.984 C 295.200 234.484,295.434 234.372,296.121 234.544 C 296.762 234.705,297.213 234.536,297.609 233.988 C 297.921 233.554,298.407 233.200,298.688 233.200 C 298.970 233.200,299.200 232.974,299.200 232.698 C 299.200 232.056,301.303 231.111,302.073 231.407 C 302.441 231.548,302.828 231.257,303.117 230.623 C 303.417 229.964,303.787 229.697,304.188 229.851 C 304.550 229.990,304.804 229.864,304.810 229.543 C 304.820 228.970,307.223 227.600,308.216 227.600 C 308.537 227.600,308.800 227.318,308.800 226.973 C 308.800 226.528,309.032 226.420,309.600 226.600 C 310.183 226.785,310.400 226.672,310.400 226.184 C 310.400 225.684,310.634 225.572,311.321 225.744 C 311.962 225.905,312.413 225.736,312.809 225.188 C 313.121 224.754,313.607 224.400,313.888 224.400 C 314.170 224.400,314.400 224.174,314.400 223.898 C 314.400 223.256,316.503 222.311,317.273 222.607 C 317.641 222.748,318.028 222.457,318.317 221.823 C 318.617 221.164,318.987 220.897,319.388 221.051 C 319.750 221.190,320.004 221.064,320.010 220.743 C 320.045 218.802,320.078 218.800,361.416 218.800 L 400.000 218.800 400.000 217.404 L 400.000 216.008 361.200 215.904 C 339.860 215.847,322.400 215.935,322.400 216.100 M310.400 234.747 C 310.400 235.096,310.112 235.218,309.600 235.084 C 309.060 234.943,308.800 235.072,308.800 235.481 C 308.800 235.923,308.537 236.021,307.827 235.843 C 307.080 235.655,306.795 235.784,306.600 236.399 C 306.460 236.840,305.998 237.200,305.573 237.200 C 305.148 237.200,304.800 237.426,304.800 237.702 C 304.800 238.307,302.581 239.359,302.027 239.017 C 301.811 238.883,301.344 239.219,300.987 239.763 C 300.611 240.338,300.101 240.660,299.770 240.533 C 299.422 240.400,299.200 240.565,299.200 240.957 C 299.200 241.311,298.930 241.600,298.600 241.600 C 298.270 241.600,298.000 241.772,298.000 241.982 C 298.000 242.192,297.370 242.482,296.600 242.626 C 295.736 242.788,295.200 243.120,295.200 243.491 C 295.200 243.896,294.938 244.025,294.400 243.884 C 293.860 243.743,293.600 243.872,293.600 244.281 C 293.600 244.723,293.337 244.821,292.627 244.643 C 291.880 244.455,291.595 244.584,291.400 245.199 C 291.260 245.640,290.798 246.000,290.373 246.000 C 289.948 246.000,289.600 246.249,289.600 246.553 C 289.600 247.529,288.065 247.628,273.350 247.596 C 260.273 247.568,258.875 247.628,258.646 248.225 C 258.469 248.685,258.110 248.814,257.457 248.650 C 256.728 248.467,256.422 248.633,256.073 249.400 C 255.781 250.041,255.411 250.302,255.012 250.149 C 254.650 250.010,254.396 250.136,254.390 250.457 C 254.380 251.030,251.977 252.400,250.984 252.400 C 250.663 252.400,250.400 252.691,250.400 253.047 C 250.400 253.496,250.156 253.630,249.600 253.484 C 249.136 253.363,248.800 253.472,248.800 253.743 C 248.800 254.001,248.125 254.522,247.300 254.901 C 246.475 255.280,244.990 256.068,244.000 256.652 C 239.992 259.015,239.329 259.393,237.632 260.278 L 235.864 261.200 214.253 261.200 L 192.642 261.200 183.909 252.500 L 175.176 243.800 149.388 243.678 L 123.600 243.557 123.600 245.209 L 123.600 246.860 149.014 246.764 L 174.429 246.668 183.152 255.334 L 191.875 264.000 211.138 264.000 C 221.732 264.000,230.400 264.147,230.400 264.326 C 230.400 264.505,229.725 265.017,228.900 265.464 C 227.338 266.310,227.036 266.484,220.785 270.112 L 216.969 272.327 186.684 272.463 C 158.921 272.589,156.400 272.546,156.400 271.949 C 156.400 271.161,155.443 270.290,155.030 270.703 C 154.867 270.867,154.793 270.730,154.867 270.400 C 154.940 270.070,154.775 269.845,154.500 269.900 C 154.225 269.955,154.045 269.775,154.100 269.500 C 154.155 269.225,153.975 269.045,153.700 269.100 C 153.425 269.155,153.245 268.975,153.300 268.700 C 153.355 268.425,153.175 268.245,152.900 268.300 C 152.625 268.355,152.445 268.175,152.500 267.900 C 152.555 267.625,152.375 267.445,152.100 267.500 C 151.825 267.555,151.645 267.375,151.700 267.100 C 151.755 266.825,151.575 266.645,151.300 266.700 C 151.025 266.755,150.845 266.575,150.900 266.300 C 150.955 266.025,150.775 265.845,150.500 265.900 C 150.225 265.955,150.045 265.775,150.100 265.500 C 150.155 265.225,149.975 265.045,149.700 265.100 C 149.425 265.155,149.245 264.975,149.300 264.700 C 149.355 264.425,149.175 264.245,148.900 264.300 C 148.625 264.355,148.445 264.175,148.500 263.900 C 148.555 263.625,148.375 263.445,148.100 263.500 C 147.825 263.555,147.645 263.375,147.700 263.100 C 147.755 262.825,147.575 262.645,147.300 262.700 C 147.025 262.755,146.845 262.575,146.900 262.300 C 146.955 262.025,146.775 261.845,146.500 261.900 C 146.225 261.955,146.045 261.775,146.100 261.500 C 146.155 261.225,145.975 261.045,145.700 261.100 C 145.425 261.155,145.245 260.975,145.300 260.700 C 145.355 260.425,145.175 260.245,144.900 260.300 C 144.625 260.355,144.445 260.175,144.500 259.900 C 144.555 259.625,144.375 259.445,144.100 259.500 C 143.825 259.555,143.645 259.375,143.700 259.100 C 143.755 258.825,143.575 258.645,143.300 258.700 C 143.025 258.755,142.845 258.575,142.900 258.300 C 142.955 258.025,142.730 257.860,142.400 257.933 C 142.070 258.007,141.933 257.933,142.097 257.770 C 142.544 257.322,141.623 256.416,140.974 256.665 C 140.662 256.785,140.296 256.594,140.161 256.242 C 139.938 255.662,137.337 255.600,113.104 255.600 C 88.030 255.600,86.252 255.554,85.647 254.896 C 84.911 254.096,80.117 253.860,79.388 254.589 C 78.780 255.197,79.162 258.896,79.933 259.864 C 80.626 260.735,84.000 261.465,84.000 260.744 C 84.000 260.535,84.442 259.922,84.982 259.382 L 85.964 258.400 112.582 258.400 C 135.831 258.400,139.200 258.475,139.200 258.993 C 139.200 259.319,142.755 263.144,147.100 267.493 L 155.000 275.400 186.154 275.263 C 215.923 275.131,217.369 275.091,218.654 274.363 C 222.270 272.313,224.516 271.019,229.000 268.400 C 230.980 267.244,233.230 265.943,234.000 265.511 C 234.770 265.078,235.571 264.562,235.780 264.362 C 235.992 264.160,242.468 264.000,250.468 264.000 C 266.147 264.000,264.454 264.216,268.900 261.650 C 269.615 261.237,272.410 259.624,275.111 258.065 C 277.812 256.506,280.417 254.954,280.900 254.615 C 281.383 254.277,282.098 254.000,282.489 254.000 C 282.880 254.000,283.200 253.718,283.200 253.373 C 283.200 252.928,283.432 252.820,284.000 253.000 C 284.583 253.185,284.800 253.072,284.800 252.584 C 284.800 252.084,285.034 251.972,285.721 252.144 C 286.362 252.305,286.813 252.136,287.209 251.588 C 287.769 250.811,288.528 250.800,343.888 250.800 L 400.000 250.800 400.000 249.193 L 400.000 247.586 346.600 247.693 C 317.230 247.752,293.200 247.695,293.200 247.568 C 293.200 247.106,295.135 246.312,295.583 246.590 C 295.836 246.746,296.369 246.497,296.768 246.037 C 297.167 245.577,297.698 245.200,297.947 245.200 C 298.196 245.200,298.400 244.918,298.400 244.573 C 298.400 244.128,298.632 244.020,299.200 244.200 C 299.783 244.385,300.000 244.272,300.000 243.784 C 300.000 243.284,300.234 243.172,300.921 243.344 C 301.562 243.505,302.013 243.336,302.409 242.788 C 302.721 242.354,303.207 242.000,303.488 242.000 C 303.770 242.000,304.000 241.774,304.000 241.498 C 304.000 240.856,306.103 239.911,306.873 240.207 C 307.241 240.348,307.628 240.057,307.917 239.423 C 308.217 238.764,308.587 238.497,308.988 238.651 C 309.369 238.797,309.600 238.660,309.600 238.289 C 309.600 237.226,310.844 237.197,355.700 237.205 L 400.000 237.213 400.000 235.810 L 400.000 234.407 355.200 234.303 C 317.537 234.216,310.400 234.287,310.400 234.747 M282.400 250.910 C 282.400 251.081,281.860 251.328,281.200 251.460 C 280.510 251.598,280.000 251.954,280.000 252.297 C 280.000 252.696,279.736 252.824,279.200 252.684 C 278.659 252.543,278.400 252.672,278.400 253.084 C 278.400 253.509,278.142 253.626,277.548 253.470 C 276.690 253.246,275.600 253.974,275.600 254.771 C 275.600 255.007,275.240 255.200,274.800 255.200 C 274.360 255.200,273.999 255.335,273.997 255.500 C 273.995 255.665,273.590 255.997,273.097 256.237 C 272.604 256.477,270.580 257.647,268.600 258.837 L 265.000 261.000 254.498 261.119 C 242.009 261.260,241.565 261.144,245.642 258.808 C 247.269 257.876,249.832 256.310,251.338 255.329 C 252.844 254.347,254.329 253.640,254.638 253.759 C 254.974 253.888,255.200 253.722,255.200 253.344 C 255.200 252.882,255.451 252.776,256.139 252.949 C 256.872 253.133,257.177 252.969,257.527 252.200 C 257.819 251.559,258.189 251.298,258.588 251.451 C 258.952 251.590,259.200 251.466,259.200 251.143 C 259.200 250.698,261.299 250.600,270.800 250.600 C 277.180 250.600,282.400 250.740,282.400 250.910 " stroke="none" fill="#060404" fill-rule="evenodd"></path><path id="path2" d="M39.600 126.800 L 39.600 142.800 142.400 142.800 C 198.940 142.800,245.200 142.908,245.200 143.040 C 245.200 143.171,244.660 143.783,244.000 144.400 C 243.340 145.017,242.800 145.737,242.800 146.000 C 242.800 146.263,242.260 146.983,241.600 147.600 C 240.940 148.217,240.400 148.969,240.400 149.272 C 240.400 149.575,240.040 150.083,239.600 150.400 C 239.160 150.717,238.800 151.225,238.800 151.528 C 238.800 151.831,238.260 152.583,237.600 153.200 C 236.940 153.817,236.400 154.569,236.400 154.872 C 236.400 155.175,236.040 155.683,235.600 156.000 C 235.160 156.317,234.800 156.825,234.800 157.128 C 234.800 157.431,234.260 158.183,233.600 158.800 C 232.940 159.417,232.400 160.169,232.400 160.472 C 232.400 160.775,232.040 161.283,231.600 161.600 C 231.160 161.917,230.800 162.425,230.800 162.728 C 230.800 163.031,230.260 163.783,229.600 164.400 C 228.940 165.017,228.400 165.737,228.400 166.000 C 228.400 166.263,227.860 166.983,227.200 167.600 C 226.540 168.217,226.000 168.969,226.000 169.272 C 226.000 169.575,225.640 170.083,225.200 170.400 C 224.760 170.717,224.400 171.225,224.400 171.528 C 224.400 171.831,223.860 172.583,223.200 173.200 C 222.540 173.817,222.000 174.569,222.000 174.872 C 222.000 175.175,221.640 175.683,221.200 176.000 C 220.760 176.317,220.400 176.831,220.400 177.141 C 220.400 177.452,220.007 178.047,219.526 178.464 C 218.279 179.546,217.653 179.116,234.600 188.805 C 235.260 189.182,236.970 190.180,238.400 191.023 C 241.533 192.870,243.600 192.777,243.600 190.789 C 243.600 190.532,244.140 189.817,244.800 189.200 C 245.460 188.583,246.000 187.831,246.000 187.528 C 246.000 187.225,246.360 186.717,246.800 186.400 C 247.240 186.083,247.600 185.575,247.600 185.272 C 247.600 184.969,248.140 184.217,248.800 183.600 C 249.460 182.983,250.000 182.231,250.000 181.928 C 250.000 181.625,250.360 181.117,250.800 180.800 C 251.240 180.483,251.600 179.975,251.600 179.672 C 251.600 179.369,252.140 178.617,252.800 178.000 C 253.460 177.383,254.000 176.631,254.000 176.328 C 254.000 176.025,254.360 175.517,254.800 175.200 C 255.240 174.883,255.600 174.375,255.600 174.072 C 255.600 173.769,256.140 173.017,256.800 172.400 C 257.460 171.783,258.000 171.063,258.000 170.800 C 258.000 170.537,258.540 169.817,259.200 169.200 C 259.860 168.583,260.400 167.831,260.400 167.528 C 260.400 167.225,260.760 166.717,261.200 166.400 C 261.640 166.083,262.000 165.575,262.000 165.272 C 262.000 164.969,262.540 164.217,263.200 163.600 C 263.860 162.983,264.400 162.231,264.400 161.928 C 264.400 161.625,264.760 161.117,265.200 160.800 C 265.640 160.483,266.000 159.975,266.000 159.672 C 266.000 159.369,266.540 158.617,267.200 158.000 C 267.860 157.383,268.400 156.631,268.400 156.328 C 268.400 156.025,268.760 155.517,269.200 155.200 C 269.640 154.883,270.000 154.375,270.000 154.072 C 270.000 153.769,270.540 153.017,271.200 152.400 C 271.860 151.783,272.400 151.063,272.400 150.800 C 272.400 150.537,272.940 149.817,273.600 149.200 C 274.260 148.583,274.800 147.831,274.800 147.528 C 274.800 147.225,275.160 146.717,275.600 146.400 C 276.040 146.083,276.400 145.585,276.400 145.294 C 276.400 144.063,278.316 142.800,280.182 142.800 L 282.000 142.800 282.000 126.800 L 282.000 110.800 160.800 110.800 L 39.600 110.800 39.600 126.800 M216.400 182.840 C 216.400 183.081,215.860 183.783,215.200 184.400 C 214.540 185.017,214.000 185.769,214.000 186.072 C 214.000 186.375,213.640 186.883,213.200 187.200 C 212.760 187.517,212.400 188.025,212.400 188.328 C 212.400 188.631,211.860 189.383,211.200 190.000 C 210.540 190.617,210.000 191.337,210.000 191.600 C 210.000 191.863,209.460 192.583,208.800 193.200 C 208.140 193.817,207.600 194.569,207.600 194.872 C 207.600 195.175,207.240 195.683,206.800 196.000 C 206.360 196.317,206.000 196.825,206.000 197.128 C 206.000 197.431,205.460 198.183,204.800 198.800 C 204.140 199.417,203.600 200.169,203.600 200.472 C 203.600 200.775,203.240 201.283,202.800 201.600 C 202.360 201.917,202.000 202.425,202.000 202.728 C 202.000 203.031,201.460 203.783,200.800 204.400 C 200.140 205.017,199.600 205.769,199.600 206.072 C 199.600 206.375,199.240 206.883,198.800 207.200 C 198.360 207.517,198.000 208.025,198.000 208.328 C 198.000 208.631,197.446 209.397,196.769 210.029 C 194.014 212.603,193.997 212.600,211.834 212.600 C 228.722 212.600,229.200 212.550,229.200 210.789 C 229.200 210.532,229.740 209.817,230.400 209.200 C 231.060 208.583,231.600 207.831,231.600 207.528 C 231.600 207.225,231.960 206.717,232.400 206.400 C 232.840 206.083,233.200 205.575,233.200 205.272 C 233.200 204.969,233.740 204.217,234.400 203.600 C 235.060 202.983,235.600 202.231,235.600 201.928 C 235.600 201.625,235.960 201.117,236.400 200.800 C 236.840 200.483,237.200 199.975,237.200 199.672 C 237.200 199.369,237.740 198.617,238.400 198.000 C 240.517 196.023,240.292 195.730,233.800 192.001 C 215.811 181.670,216.400 181.981,216.400 182.840 M192.300 216.276 C 191.915 216.376,191.600 216.733,191.600 217.069 C 191.600 217.404,191.060 218.183,190.400 218.800 C 189.740 219.417,189.200 220.169,189.200 220.472 C 189.200 220.775,188.840 221.283,188.400 221.600 C 187.960 221.917,187.600 222.587,187.600 223.088 L 187.600 224.000 197.052 224.000 L 206.503 224.000 209.978 227.400 C 211.889 229.270,213.671 230.800,213.939 230.800 C 214.593 230.800,217.200 228.163,217.200 227.502 C 217.200 227.213,217.560 226.717,218.000 226.400 C 218.440 226.083,218.800 225.575,218.800 225.272 C 218.800 224.969,219.340 224.217,220.000 223.600 C 220.660 222.983,221.200 222.231,221.200 221.928 C 221.200 221.625,221.560 221.117,222.000 220.800 C 222.440 220.483,222.800 219.975,222.800 219.672 C 222.800 219.369,223.354 218.604,224.030 217.972 C 224.707 217.339,225.147 216.637,225.007 216.411 C 224.755 216.004,193.828 215.876,192.300 216.276 M184.300 227.476 C 183.915 227.576,183.600 227.933,183.600 228.269 C 183.600 228.604,183.060 229.383,182.400 230.000 C 181.740 230.617,181.200 231.369,181.200 231.672 C 181.200 231.975,180.840 232.483,180.400 232.800 C 179.960 233.117,179.600 233.625,179.600 233.928 C 179.600 234.231,179.060 234.983,178.400 235.600 C 177.740 236.217,177.200 236.969,177.200 237.272 C 177.200 237.575,176.840 238.083,176.400 238.400 C 175.960 238.717,175.600 239.225,175.600 239.528 C 175.600 239.831,175.059 240.584,174.398 241.202 C 173.071 242.442,173.131 243.600,174.522 243.600 C 175.077 243.600,178.263 246.494,183.991 252.200 L 192.623 260.800 214.459 260.800 L 236.295 260.800 240.948 258.153 C 243.506 256.698,245.600 255.348,245.600 255.153 C 245.600 254.953,235.308 254.800,221.800 254.800 C 195.545 254.800,196.520 254.904,199.200 252.400 C 199.860 251.783,200.400 251.063,200.400 250.800 C 200.400 250.537,200.940 249.817,201.600 249.200 C 202.260 248.583,202.800 247.831,202.800 247.528 C 202.800 247.225,203.160 246.717,203.600 246.400 C 204.040 246.083,204.400 245.575,204.400 245.272 C 204.400 244.969,204.940 244.217,205.600 243.600 C 206.260 242.983,206.800 242.231,206.800 241.928 C 206.800 241.625,207.160 241.117,207.600 240.800 C 208.040 240.483,208.400 239.975,208.400 239.672 C 208.400 239.369,208.940 238.617,209.600 238.000 C 210.260 237.383,210.800 236.668,210.800 236.411 C 210.800 236.153,211.070 235.673,211.400 235.343 C 212.347 234.395,212.193 234.123,208.689 230.564 L 205.378 227.200 195.189 227.246 C 189.585 227.272,184.685 227.375,184.300 227.476 M170.300 247.265 C 169.695 247.486,169.200 247.939,169.200 248.273 C 169.200 248.606,168.660 249.383,168.000 250.000 C 167.340 250.617,166.800 251.325,166.800 251.574 C 166.800 252.454,164.046 254.800,163.013 254.800 C 162.064 254.800,162.000 254.926,162.000 256.800 C 162.000 257.900,161.820 258.800,161.600 258.800 C 161.380 258.800,161.200 259.160,161.200 259.600 C 161.200 260.040,161.375 260.400,161.589 260.400 C 161.818 260.400,162.024 262.750,162.089 266.100 L 162.200 271.800 189.551 271.903 L 216.901 272.006 222.551 268.748 C 225.658 266.956,228.602 265.272,229.094 265.006 C 230.805 264.078,229.353 264.000,210.430 264.000 L 191.393 264.000 182.800 255.400 C 173.478 246.071,173.511 246.092,170.300 247.265 M252.400 255.363 C 251.630 255.653,249.470 256.815,247.600 257.945 C 245.730 259.075,244.065 260.000,243.900 260.000 C 243.735 260.000,243.600 260.180,243.600 260.400 C 243.600 260.657,247.361 260.797,254.100 260.792 L 264.600 260.783 268.981 258.249 C 271.390 256.856,273.430 255.510,273.514 255.258 C 273.747 254.560,254.273 254.657,252.400 255.363 M281.000 255.093 C 280.560 255.203,279.750 255.602,279.200 255.980 C 278.650 256.357,275.298 258.316,271.752 260.333 L 265.304 264.000 251.130 264.000 L 236.957 264.000 235.178 265.120 C 234.200 265.736,230.430 267.926,226.800 269.987 C 223.170 272.048,219.724 274.062,219.142 274.464 C 218.146 275.152,216.448 275.201,190.142 275.297 L 162.200 275.400 162.087 279.900 L 161.974 284.400 239.187 284.400 L 316.400 284.400 316.400 269.600 L 316.400 254.800 299.100 254.846 C 289.585 254.872,281.440 254.983,281.000 255.093 " stroke="none" fill="#fb3434" fill-rule="evenodd"></path><path id="path3" d="M142.865 184.665 C 138.392 189.174,134.822 192.955,134.933 193.067 C 135.132 193.266,151.600 176.998,151.600 176.602 C 151.600 175.975,150.250 177.221,142.865 184.665 M357.200 187.804 C 357.200 188.201,367.266 198.067,367.467 197.867 C 367.667 197.666,357.801 187.600,357.404 187.600 C 357.292 187.600,357.200 187.692,357.200 187.804 M371.600 202.229 C 371.600 202.653,372.836 203.697,373.067 203.467 C 373.192 203.341,373.017 202.960,372.676 202.619 C 372.041 201.984,371.600 201.824,371.600 202.229 M252.800 216.000 C 252.800 216.220,253.070 216.400,253.400 216.400 C 253.730 216.400,254.000 216.220,254.000 216.000 C 254.000 215.780,253.730 215.600,253.400 215.600 C 253.070 215.600,252.800 215.780,252.800 216.000 M120.400 224.000 C 120.400 224.220,120.670 224.400,121.000 224.400 C 121.330 224.400,121.600 224.220,121.600 224.000 C 121.600 223.780,121.330 223.600,121.000 223.600 C 120.670 223.600,120.400 223.780,120.400 224.000 M218.416 235.632 C 221.085 238.290,223.360 240.374,223.470 240.263 C 223.739 239.994,214.524 230.800,213.985 230.800 C 213.752 230.800,215.746 232.974,218.416 235.632 M172.400 243.200 C 172.400 243.420,172.670 243.600,173.000 243.600 C 173.330 243.600,173.600 243.420,173.600 243.200 C 173.600 242.980,173.330 242.800,173.000 242.800 C 172.670 242.800,172.400 242.980,172.400 243.200 M274.000 254.400 C 274.000 254.620,274.270 254.800,274.600 254.800 C 274.930 254.800,275.200 254.620,275.200 254.400 C 275.200 254.180,274.930 254.000,274.600 254.000 C 274.270 254.000,274.000 254.180,274.000 254.400 M72.400 266.400 C 72.400 267.500,72.580 268.400,72.800 268.400 C 73.020 268.400,73.200 267.500,73.200 266.400 C 73.200 265.300,73.020 264.400,72.800 264.400 C 72.580 264.400,72.400 265.300,72.400 266.400 M127.600 270.600 C 127.600 270.930,127.780 271.200,128.000 271.200 C 128.220 271.200,128.400 270.930,128.400 270.600 C 128.400 270.270,128.220 270.000,128.000 270.000 C 127.780 270.000,127.600 270.270,127.600 270.600 M72.900 273.865 C 72.300 274.107,72.178 282.000,72.774 282.000 C 72.980 282.000,73.205 280.110,73.274 277.799 C 73.343 275.489,73.400 273.613,73.400 273.631 C 73.400 273.649,73.175 273.754,72.900 273.865 " stroke="none" fill="#af8f95" fill-rule="evenodd"></path><path id="path4" d="M150.000 172.800 C 150.000 173.020,149.727 173.200,149.393 173.200 C 149.059 173.200,145.192 176.800,140.800 181.200 L 132.814 189.200 98.407 189.200 C 68.090 189.200,64.000 189.271,64.000 189.800 C 64.000 190.329,68.094 190.400,98.445 190.400 L 132.890 190.400 141.369 182.003 L 149.849 173.605 178.591 173.503 C 201.156 173.422,207.369 173.293,207.500 172.900 C 207.632 172.503,201.722 172.400,178.833 172.400 C 159.878 172.400,150.000 172.537,150.000 172.800 M209.677 174.430 C 209.755 174.667,209.991 174.860,210.200 174.860 C 210.409 174.860,210.645 174.667,210.723 174.430 C 210.802 174.194,210.567 174.000,210.200 174.000 C 209.833 174.000,209.598 174.194,209.677 174.430 M142.474 184.256 C 138.005 188.761,134.405 192.579,134.474 192.742 C 134.543 192.904,138.426 189.204,143.102 184.519 C 147.778 179.833,151.378 176.015,151.102 176.032 C 150.826 176.050,146.943 179.751,142.474 184.256 M207.600 177.400 C 207.600 177.730,207.870 178.000,208.200 178.000 C 208.530 178.000,208.800 177.730,208.800 177.400 C 208.800 177.070,208.530 176.800,208.200 176.800 C 207.870 176.800,207.600 177.070,207.600 177.400 M215.200 177.833 C 215.200 178.540,216.061 178.417,216.308 177.675 C 216.395 177.414,216.182 177.200,215.833 177.200 C 215.485 177.200,215.200 177.485,215.200 177.833 M209.456 177.878 C 209.005 178.328,209.181 178.800,209.800 178.800 C 210.130 178.800,210.400 178.631,210.400 178.424 C 210.400 177.919,209.775 177.558,209.456 177.878 M213.467 180.267 C 213.006 180.727,213.175 181.200,213.800 181.200 C 214.130 181.200,214.400 180.930,214.400 180.600 C 214.400 179.975,213.927 179.806,213.467 180.267 M217.200 182.531 C 217.750 182.820,218.605 183.275,219.100 183.542 C 220.556 184.328,220.130 183.756,218.577 182.840 C 217.795 182.378,216.940 182.001,216.677 182.002 C 216.415 182.004,216.650 182.242,217.200 182.531 M224.800 183.379 C 224.800 183.489,225.340 183.859,226.000 184.200 C 226.660 184.541,227.200 184.731,227.200 184.621 C 227.200 184.511,226.660 184.141,226.000 183.800 C 225.340 183.459,224.800 183.269,224.800 183.379 M220.400 184.179 C 220.400 184.289,220.940 184.659,221.600 185.000 C 222.260 185.341,222.800 185.531,222.800 185.421 C 222.800 185.311,222.260 184.941,221.600 184.600 C 220.940 184.259,220.400 184.069,220.400 184.179 M227.600 184.979 C 227.600 185.089,228.140 185.459,228.800 185.800 C 229.460 186.141,230.000 186.331,230.000 186.221 C 230.000 186.111,229.460 185.741,228.800 185.400 C 228.140 185.059,227.600 184.869,227.600 184.979 M231.200 187.164 C 231.750 187.614,232.380 187.983,232.600 187.985 C 233.028 187.988,232.305 187.434,231.000 186.760 C 230.469 186.485,230.536 186.621,231.200 187.164 M356.800 188.006 C 356.800 188.241,359.241 190.856,362.224 193.817 L 367.648 199.200 383.824 199.200 C 397.936 199.200,400.000 199.123,400.000 198.600 C 400.000 198.076,397.910 198.000,383.589 198.000 L 367.178 198.000 361.989 192.789 C 359.135 189.923,356.800 187.771,356.800 188.006 M292.477 188.830 C 292.555 189.067,292.791 189.260,293.000 189.260 C 293.209 189.260,293.445 189.067,293.523 188.830 C 293.602 188.594,293.367 188.400,293.000 188.400 C 292.633 188.400,292.398 188.594,292.477 188.830 M230.000 189.790 C 230.000 189.894,230.585 190.265,231.300 190.614 L 232.600 191.248 231.600 190.433 C 230.637 189.648,230.000 189.392,230.000 189.790 M232.800 191.379 C 232.800 191.489,233.340 191.859,234.000 192.200 C 234.660 192.541,235.200 192.731,235.200 192.621 C 235.200 192.511,234.660 192.141,234.000 191.800 C 233.340 191.459,232.800 191.269,232.800 191.379 M294.400 191.800 C 294.400 192.130,294.670 192.400,295.000 192.400 C 295.330 192.400,295.600 192.130,295.600 191.800 C 295.600 191.470,295.330 191.200,295.000 191.200 C 294.670 191.200,294.400 191.470,294.400 191.800 M286.892 192.075 C 287.139 192.817,288.000 192.940,288.000 192.233 C 288.000 191.885,287.715 191.600,287.367 191.600 C 287.018 191.600,286.805 191.814,286.892 192.075 M355.600 191.786 C 355.600 191.925,356.860 193.281,358.400 194.800 C 359.940 196.319,361.200 197.660,361.200 197.781 C 361.200 197.901,344.100 198.000,323.200 198.000 C 288.579 198.000,283.685 197.878,285.700 197.065 C 285.999 196.944,285.918 196.850,285.500 196.832 C 285.111 196.814,284.800 197.085,284.800 197.443 C 284.800 197.825,284.576 198.000,284.249 197.874 C 283.695 197.662,282.800 198.283,282.800 198.880 C 282.800 199.056,300.890 199.200,323.000 199.200 C 345.904 199.200,363.200 199.048,363.200 198.848 C 363.200 198.461,356.580 191.882,355.975 191.667 C 355.769 191.593,355.600 191.647,355.600 191.786 M240.800 192.767 C 241.350 193.215,242.055 193.586,242.367 193.591 C 243.094 193.603,242.912 193.452,241.200 192.627 L 239.800 191.952 240.800 192.767 M293.056 192.278 C 292.605 192.728,292.781 193.200,293.400 193.200 C 293.730 193.200,294.000 193.031,294.000 192.824 C 294.000 192.319,293.375 191.958,293.056 192.278 M235.600 192.979 C 235.600 193.089,236.140 193.459,236.800 193.800 C 237.460 194.141,238.000 194.331,238.000 194.221 C 238.000 194.111,237.460 193.741,236.800 193.400 C 236.140 193.059,235.600 192.869,235.600 192.979 M64.000 194.600 C 64.000 195.128,67.667 195.200,94.600 195.200 C 121.533 195.200,125.200 195.128,125.200 194.600 C 125.200 194.072,121.533 194.000,94.600 194.000 C 67.667 194.000,64.000 194.072,64.000 194.600 M239.027 195.287 C 239.776 196.342,241.013 196.839,240.723 195.970 C 240.645 195.734,240.468 195.599,240.332 195.670 C 240.196 195.742,239.672 195.440,239.169 195.000 L 238.255 194.200 239.027 195.287 M288.800 194.967 C 288.800 195.315,289.085 195.600,289.433 195.600 C 290.140 195.600,290.017 194.739,289.275 194.492 C 289.014 194.405,288.800 194.618,288.800 194.967 M245.600 195.433 C 245.600 196.140,246.461 196.017,246.708 195.275 C 246.795 195.014,246.582 194.800,246.233 194.800 C 245.885 194.800,245.600 195.085,245.600 195.433 M281.292 195.275 C 281.539 196.017,282.400 196.140,282.400 195.433 C 282.400 195.085,282.115 194.800,281.767 194.800 C 281.418 194.800,281.205 195.014,281.292 195.275 M125.867 197.467 C 125.406 197.927,125.575 198.400,126.200 198.400 C 126.530 198.400,126.800 198.130,126.800 197.800 C 126.800 197.175,126.327 197.006,125.867 197.467 M277.277 197.630 C 277.356 197.867,277.591 198.060,277.800 198.060 C 278.009 198.060,278.245 197.867,278.323 197.630 C 278.402 197.394,278.167 197.200,277.800 197.200 C 277.433 197.200,277.198 197.394,277.277 197.630 M243.867 197.867 C 243.406 198.327,243.575 198.800,244.200 198.800 C 244.530 198.800,244.800 198.530,244.800 198.200 C 244.800 197.575,244.327 197.406,243.867 197.867 M251.300 198.500 C 251.574 199.323,276.800 199.427,276.800 198.606 C 276.800 198.077,275.160 198.000,263.967 198.000 C 253.878 198.000,251.169 198.107,251.300 198.500 M126.667 199.867 C 126.206 200.327,126.375 200.800,127.000 200.800 C 127.330 200.800,127.600 200.530,127.600 200.200 C 127.600 199.575,127.127 199.406,126.667 199.867 M249.467 201.067 C 249.006 201.527,249.175 202.000,249.800 202.000 C 250.130 202.000,250.400 201.730,250.400 201.400 C 250.400 200.775,249.927 200.606,249.467 201.067 M370.400 201.813 C 370.400 202.337,373.254 204.814,373.606 204.596 C 374.245 204.201,374.057 203.600,373.295 203.600 C 372.907 203.600,372.252 203.150,371.839 202.600 C 371.157 201.691,370.400 201.278,370.400 201.813 M127.478 202.256 C 127.158 202.575,127.519 203.200,128.024 203.200 C 128.231 203.200,128.400 202.930,128.400 202.600 C 128.400 201.981,127.928 201.805,127.478 202.256 M366.000 202.207 C 366.000 202.659,371.275 207.658,371.507 207.426 C 371.644 207.290,370.600 206.013,369.189 204.589 C 366.877 202.256,366.000 201.601,366.000 202.207 M273.600 203.767 C 273.600 204.115,273.885 204.400,274.233 204.400 C 274.940 204.400,274.817 203.539,274.075 203.292 C 273.814 203.205,273.600 203.418,273.600 203.767 M266.092 204.075 C 266.339 204.817,267.200 204.940,267.200 204.233 C 267.200 203.885,266.915 203.600,266.567 203.600 C 266.218 203.600,266.005 203.814,266.092 204.075 M262.077 206.430 C 262.156 206.667,262.391 206.860,262.600 206.860 C 262.809 206.860,263.045 206.667,263.123 206.430 C 263.202 206.194,262.967 206.000,262.600 206.000 C 262.233 206.000,261.998 206.194,262.077 206.430 M268.000 206.967 C 268.000 207.315,268.285 207.600,268.633 207.600 C 269.340 207.600,269.217 206.739,268.475 206.492 C 268.214 206.405,268.000 206.618,268.000 206.967 M260.400 207.400 C 260.400 207.730,260.670 208.000,261.000 208.000 C 261.330 208.000,261.600 207.730,261.600 207.400 C 261.600 207.070,261.330 206.800,261.000 206.800 C 260.670 206.800,260.400 207.070,260.400 207.400 M129.692 209.275 C 129.891 209.873,130.800 210.202,130.800 209.676 C 130.800 209.461,130.515 209.176,130.167 209.043 C 129.777 208.893,129.594 208.982,129.692 209.275 M256.477 209.630 C 256.555 209.867,256.791 210.060,257.000 210.060 C 257.209 210.060,257.445 209.867,257.523 209.630 C 257.602 209.394,257.367 209.200,257.000 209.200 C 256.633 209.200,256.398 209.394,256.477 209.630 M262.656 209.878 C 262.205 210.328,262.381 210.800,263.000 210.800 C 263.330 210.800,263.600 210.631,263.600 210.424 C 263.600 209.919,262.975 209.558,262.656 209.878 M130.667 211.067 C 130.206 211.527,130.375 212.000,131.000 212.000 C 131.330 212.000,131.600 211.730,131.600 211.400 C 131.600 210.775,131.127 210.606,130.667 211.067 M258.400 212.567 C 258.400 212.915,258.685 213.200,259.033 213.200 C 259.740 213.200,259.617 212.339,258.875 212.092 C 258.614 212.005,258.400 212.218,258.400 212.567 M90.000 214.995 C 90.000 215.139,90.289 215.547,90.643 215.900 C 91.234 216.491,91.275 216.483,91.143 215.805 C 91.011 215.122,90.000 214.406,90.000 214.995 M322.900 215.300 C 323.175 216.125,400.000 216.227,400.000 215.402 C 400.000 214.870,395.498 214.800,361.367 214.800 C 330.638 214.800,322.767 214.902,322.900 215.300 M96.872 216.232 C 96.361 216.780,96.032 217.448,96.140 217.715 C 96.290 218.085,96.344 218.082,96.368 217.700 C 96.386 217.425,96.745 217.200,97.167 217.200 C 97.588 217.200,97.993 217.025,98.067 216.811 C 98.152 216.561,125.890 216.383,175.500 216.314 C 218.015 216.254,252.800 216.083,252.800 215.932 C 252.800 215.782,253.115 215.597,253.500 215.521 C 253.885 215.445,219.010 215.350,176.000 215.309 L 97.800 215.235 96.872 216.232 M318.000 217.800 C 318.000 218.130,318.270 218.400,318.600 218.400 C 318.930 218.400,319.200 218.130,319.200 217.800 C 319.200 217.470,318.930 217.200,318.600 217.200 C 318.270 217.200,318.000 217.470,318.000 217.800 M314.077 220.030 C 314.156 220.267,314.391 220.460,314.600 220.460 C 314.809 220.460,315.045 220.267,315.123 220.030 C 315.202 219.793,314.967 219.600,314.600 219.600 C 314.233 219.600,313.998 219.793,314.077 220.030 M320.000 220.567 C 320.000 220.915,320.285 221.200,320.633 221.200 C 321.340 221.200,321.217 220.339,320.475 220.092 C 320.214 220.005,320.000 220.218,320.000 220.567 M308.492 223.275 C 308.739 224.017,309.600 224.140,309.600 223.433 C 309.600 223.085,309.315 222.800,308.967 222.800 C 308.618 222.800,308.405 223.014,308.492 223.275 M314.656 223.478 C 314.205 223.928,314.381 224.400,315.000 224.400 C 315.330 224.400,315.600 224.231,315.600 224.024 C 315.600 223.519,314.975 223.158,314.656 223.478 M121.600 223.942 C 121.600 224.194,121.330 224.400,121.000 224.400 C 120.670 224.400,120.400 224.592,120.400 224.827 C 120.400 225.062,120.715 225.166,121.100 225.058 C 121.485 224.950,140.930 224.803,164.311 224.731 L 206.821 224.600 215.204 233.128 C 219.814 237.818,223.769 241.543,223.993 241.404 C 224.594 241.033,224.487 240.400,223.825 240.400 C 223.508 240.400,219.773 236.967,215.525 232.771 C 211.276 228.575,207.390 224.861,206.888 224.517 C 205.707 223.708,121.600 223.141,121.600 223.942 M310.400 226.167 C 310.400 226.515,310.685 226.800,311.033 226.800 C 311.740 226.800,311.617 225.939,310.875 225.692 C 310.614 225.605,310.400 225.818,310.400 226.167 M302.892 226.475 C 303.139 227.217,304.000 227.340,304.000 226.633 C 304.000 226.285,303.715 226.000,303.367 226.000 C 303.018 226.000,302.805 226.214,302.892 226.475 M208.662 230.500 C 210.493 232.315,211.994 234.020,211.996 234.288 C 212.001 234.902,221.574 244.559,221.877 244.256 C 222.111 244.023,206.050 227.200,205.594 227.200 C 205.450 227.200,206.831 228.685,208.662 230.500 M298.877 228.830 C 298.955 229.067,299.191 229.260,299.400 229.260 C 299.609 229.260,299.845 229.067,299.923 228.830 C 300.002 228.594,299.767 228.400,299.400 228.400 C 299.033 228.400,298.798 228.594,298.877 228.830 M304.800 229.367 C 304.800 229.715,305.085 230.000,305.433 230.000 C 306.140 230.000,306.017 229.139,305.275 228.892 C 305.014 228.805,304.800 229.018,304.800 229.367 M293.292 232.075 C 293.539 232.817,294.400 232.940,294.400 232.233 C 294.400 231.885,294.115 231.600,293.767 231.600 C 293.418 231.600,293.205 231.814,293.292 232.075 M299.456 232.278 C 299.005 232.728,299.181 233.200,299.800 233.200 C 300.130 233.200,300.400 233.031,300.400 232.824 C 300.400 232.319,299.775 231.958,299.456 232.278 M310.900 233.700 C 311.175 234.525,400.000 234.626,400.000 233.802 C 400.000 233.270,394.831 233.200,355.367 233.200 C 319.838 233.200,310.767 233.302,310.900 233.700 M295.200 235.000 C 295.200 235.330,295.470 235.600,295.800 235.600 C 296.130 235.600,296.400 235.330,296.400 235.000 C 296.400 234.670,296.130 234.400,295.800 234.400 C 295.470 234.400,295.200 234.670,295.200 235.000 M287.692 235.275 C 287.939 236.017,288.800 236.140,288.800 235.433 C 288.800 235.085,288.515 234.800,288.167 234.800 C 287.818 234.800,287.605 235.014,287.692 235.275 M307.692 235.275 C 307.939 236.017,308.800 236.140,308.800 235.433 C 308.800 235.085,308.515 234.800,308.167 234.800 C 307.818 234.800,307.605 235.014,307.692 235.275 M283.677 237.630 C 283.755 237.867,283.991 238.060,284.200 238.060 C 284.409 238.060,284.645 237.867,284.723 237.630 C 284.802 237.394,284.567 237.200,284.200 237.200 C 283.833 237.200,283.598 237.394,283.677 237.630 M303.677 237.630 C 303.755 237.867,303.991 238.060,304.200 238.060 C 304.409 238.060,304.645 237.867,304.723 237.630 C 304.802 237.394,304.567 237.200,304.200 237.200 C 303.833 237.200,303.598 237.394,303.677 237.630 M289.600 238.167 C 289.600 238.515,289.885 238.800,290.233 238.800 C 290.940 238.800,290.817 237.939,290.075 237.692 C 289.814 237.605,289.600 237.818,289.600 238.167 M309.600 238.167 C 309.600 238.515,309.885 238.800,310.233 238.800 C 310.940 238.800,310.817 237.939,310.075 237.692 C 309.814 237.605,309.600 237.818,309.600 238.167 M282.000 238.600 C 282.000 238.930,282.270 239.200,282.600 239.200 C 282.930 239.200,283.200 238.930,283.200 238.600 C 283.200 238.270,282.930 238.000,282.600 238.000 C 282.270 238.000,282.000 238.270,282.000 238.600 M302.000 238.600 C 302.000 238.930,302.270 239.200,302.600 239.200 C 302.930 239.200,303.200 238.930,303.200 238.600 C 303.200 238.270,302.930 238.000,302.600 238.000 C 302.270 238.000,302.000 238.270,302.000 238.600 M278.077 240.830 C 278.156 241.067,278.391 241.260,278.600 241.260 C 278.809 241.260,279.045 241.067,279.123 240.830 C 279.202 240.594,278.967 240.400,278.600 240.400 C 278.233 240.400,277.998 240.594,278.077 240.830 M298.077 240.830 C 298.156 241.067,298.391 241.260,298.600 241.260 C 298.809 241.260,299.045 241.067,299.123 240.830 C 299.202 240.594,298.967 240.400,298.600 240.400 C 298.233 240.400,297.998 240.594,298.077 240.830 M284.256 241.078 C 283.805 241.528,283.981 242.000,284.600 242.000 C 284.930 242.000,285.200 241.831,285.200 241.624 C 285.200 241.119,284.575 240.758,284.256 241.078 M304.256 241.078 C 303.805 241.528,303.981 242.000,304.600 242.000 C 304.930 242.000,305.200 241.831,305.200 241.624 C 305.200 241.119,304.575 240.758,304.256 241.078 M280.000 243.800 C 280.000 244.130,280.270 244.400,280.600 244.400 C 280.930 244.400,281.200 244.130,281.200 243.800 C 281.200 243.470,280.930 243.200,280.600 243.200 C 280.270 243.200,280.000 243.470,280.000 243.800 M300.000 243.800 C 300.000 244.130,300.270 244.400,300.600 244.400 C 300.930 244.400,301.200 244.130,301.200 243.800 C 301.200 243.470,300.930 243.200,300.600 243.200 C 300.270 243.200,300.000 243.470,300.000 243.800 M173.105 243.883 C 173.602 243.979,174.322 243.975,174.705 243.875 C 175.087 243.775,174.680 243.696,173.800 243.701 C 172.920 243.705,172.607 243.787,173.105 243.883 M292.492 244.075 C 292.739 244.817,293.600 244.940,293.600 244.233 C 293.600 243.885,293.315 243.600,292.967 243.600 C 292.618 243.600,292.405 243.814,292.492 244.075 M183.800 252.400 C 188.416 257.020,192.283 260.800,192.393 260.800 C 192.503 260.800,188.816 257.020,184.200 252.400 C 179.584 247.780,175.717 244.000,175.607 244.000 C 175.497 244.000,179.184 247.780,183.800 252.400 M288.477 246.430 C 288.555 246.667,288.791 246.860,289.000 246.860 C 289.209 246.860,289.445 246.667,289.523 246.430 C 289.602 246.194,289.367 246.000,289.000 246.000 C 288.633 246.000,288.398 246.194,288.477 246.430 M172.021 246.693 L 174.242 246.835 182.818 255.418 C 187.534 260.138,191.500 264.000,191.632 264.000 C 191.763 264.000,187.894 260.042,183.035 255.205 L 174.200 246.410 172.000 246.481 L 169.800 246.551 172.021 246.693 M294.060 247.043 C 293.376 247.814,293.589 248.033,294.734 247.733 C 295.228 247.604,295.569 247.307,295.491 247.074 C 295.266 246.397,294.644 246.383,294.060 247.043 M286.892 247.275 C 287.139 248.017,288.000 248.140,288.000 247.433 C 288.000 247.085,287.715 246.800,287.367 246.800 C 287.018 246.800,286.805 247.014,286.892 247.275 M257.200 248.200 C 257.200 248.530,257.470 248.800,257.800 248.800 C 258.130 248.800,258.400 248.530,258.400 248.200 C 258.400 247.870,258.130 247.600,257.800 247.600 C 257.470 247.600,257.200 247.870,257.200 248.200 M253.277 250.430 C 253.356 250.667,253.591 250.860,253.800 250.860 C 254.009 250.860,254.245 250.667,254.323 250.430 C 254.402 250.194,254.167 250.000,253.800 250.000 C 253.433 250.000,253.198 250.194,253.277 250.430 M259.456 250.678 C 259.005 251.128,259.181 251.600,259.800 251.600 C 260.130 251.600,260.400 251.431,260.400 251.224 C 260.400 250.719,259.775 250.358,259.456 250.678 M284.800 252.600 C 284.800 252.930,285.070 253.200,285.400 253.200 C 285.730 253.200,286.000 252.930,286.000 252.600 C 286.000 252.270,285.730 252.000,285.400 252.000 C 285.070 252.000,284.800 252.270,284.800 252.600 M277.292 252.875 C 277.539 253.617,278.400 253.740,278.400 253.033 C 278.400 252.685,278.115 252.400,277.767 252.400 C 277.418 252.400,277.205 252.614,277.292 252.875 M255.200 253.400 C 255.200 253.730,255.470 254.000,255.800 254.000 C 256.130 254.000,256.400 253.730,256.400 253.400 C 256.400 253.070,256.130 252.800,255.800 252.800 C 255.470 252.800,255.200 253.070,255.200 253.400 M80.400 253.600 C 80.400 253.820,80.670 254.000,81.000 254.000 C 81.330 254.000,81.600 253.820,81.600 253.600 C 81.600 253.380,81.330 253.200,81.000 253.200 C 80.670 253.200,80.400 253.380,80.400 253.600 M83.000 253.600 C 83.136 253.820,83.507 254.000,83.824 254.000 C 84.141 254.000,84.400 253.820,84.400 253.600 C 84.400 253.380,84.029 253.200,83.576 253.200 C 83.123 253.200,82.864 253.380,83.000 253.600 M247.692 253.675 C 247.939 254.417,248.800 254.540,248.800 253.833 C 248.800 253.485,248.515 253.200,248.167 253.200 C 247.818 253.200,247.605 253.414,247.692 253.675 M252.711 254.586 C 250.795 255.691,250.211 256.300,251.880 255.451 C 252.584 255.093,253.529 254.800,253.980 254.800 C 254.431 254.800,254.800 254.631,254.800 254.424 C 254.800 253.689,254.181 253.738,252.711 254.586 M246.800 254.400 C 246.800 254.620,246.549 254.800,246.243 254.800 C 245.936 254.800,245.591 255.046,245.476 255.347 C 245.306 255.788,245.451 255.808,246.230 255.447 C 247.048 255.067,247.617 254.000,247.000 254.000 C 246.890 254.000,246.800 254.180,246.800 254.400 M275.200 254.333 C 275.200 254.590,274.859 254.800,274.443 254.800 C 274.026 254.800,273.582 255.070,273.455 255.400 C 273.329 255.730,273.399 256.000,273.613 256.000 C 273.826 256.000,274.000 255.820,274.000 255.600 C 274.000 255.380,274.259 255.200,274.576 255.200 C 275.229 255.200,275.804 254.471,275.440 254.107 C 275.308 253.975,275.200 254.077,275.200 254.333 M78.000 257.167 L 78.000 258.800 72.000 258.800 C 66.267 258.800,66.000 258.836,66.000 259.600 C 66.000 260.492,66.413 260.627,67.085 259.955 C 67.386 259.654,69.408 259.558,73.300 259.658 L 79.069 259.808 79.035 257.838 C 78.991 255.354,78.000 254.711,78.000 257.167 M277.500 256.629 C 276.005 257.440,276.096 257.778,277.600 257.000 C 278.260 256.659,278.800 256.294,278.800 256.190 C 278.800 255.932,278.757 255.947,277.500 256.629 M247.900 257.429 C 246.405 258.240,246.496 258.578,248.000 257.800 C 248.660 257.459,249.200 257.094,249.200 256.990 C 249.200 256.732,249.157 256.747,247.900 257.429 M270.300 257.429 C 268.805 258.240,268.896 258.578,270.400 257.800 C 271.060 257.459,271.600 257.094,271.600 256.990 C 271.600 256.732,271.557 256.747,270.300 257.429 M274.700 258.229 C 273.205 259.040,273.296 259.378,274.800 258.600 C 275.460 258.259,276.000 257.894,276.000 257.790 C 276.000 257.532,275.957 257.547,274.700 258.229 M84.644 260.005 C 83.827 260.888,83.269 261.788,83.403 262.005 C 83.726 262.527,84.400 262.512,84.400 261.982 C 84.400 261.340,86.286 259.600,86.982 259.600 C 87.525 259.600,87.600 260.965,87.600 270.800 C 87.600 280.489,87.681 282.000,88.200 282.000 C 88.719 282.000,88.800 280.492,88.800 270.828 L 88.800 259.655 101.000 259.625 L 113.200 259.594 113.200 270.797 C 113.200 280.489,113.281 282.000,113.800 282.000 C 114.319 282.000,114.400 280.487,114.400 270.785 L 114.400 259.570 121.098 259.643 C 126.727 259.704,127.872 259.819,128.270 260.358 C 128.700 260.942,128.767 260.937,129.014 260.300 C 129.252 259.686,129.892 259.600,134.243 259.600 C 138.383 259.600,139.200 259.501,139.200 259.000 C 139.200 258.473,135.985 258.400,112.664 258.400 L 86.129 258.400 84.644 260.005 M245.100 259.029 C 243.605 259.840,243.696 260.178,245.200 259.400 C 245.860 259.059,246.400 258.694,246.400 258.590 C 246.400 258.332,246.357 258.347,245.100 259.029 M267.500 259.029 C 266.005 259.840,266.096 260.178,267.600 259.400 C 268.260 259.059,268.800 258.694,268.800 258.590 C 268.800 258.332,268.757 258.347,267.500 259.029 M237.900 259.829 C 236.405 260.640,236.496 260.978,238.000 260.200 C 238.660 259.859,239.200 259.494,239.200 259.390 C 239.200 259.132,239.157 259.147,237.900 259.829 M271.900 259.829 C 270.405 260.640,270.496 260.978,272.000 260.200 C 272.660 259.859,273.200 259.494,273.200 259.390 C 273.200 259.132,273.157 259.147,271.900 259.829 M243.057 260.308 C 242.559 261.114,244.238 261.229,254.600 261.105 L 264.600 260.985 254.133 260.893 C 246.414 260.824,243.625 260.674,243.507 260.320 C 243.385 259.955,243.277 259.952,243.057 260.308 M129.677 260.830 C 129.756 261.067,129.991 261.260,130.200 261.260 C 130.409 261.260,130.644 261.067,130.723 260.830 C 130.802 260.594,130.567 260.400,130.200 260.400 C 129.833 260.400,129.598 260.594,129.677 260.830 M203.500 261.100 C 209.495 261.162,219.305 261.162,225.300 261.100 C 231.295 261.038,226.390 260.987,214.400 260.987 C 202.410 260.987,197.505 261.038,203.500 261.100 M132.800 264.200 C 132.800 264.530,133.070 264.800,133.400 264.800 C 133.730 264.800,134.000 264.530,134.000 264.200 C 134.000 263.870,133.730 263.600,133.400 263.600 C 133.070 263.600,132.800 263.870,132.800 264.200 M72.000 266.400 C 72.000 268.431,72.108 268.795,72.700 268.768 C 73.118 268.750,73.199 268.656,72.900 268.535 C 72.597 268.413,72.400 267.572,72.400 266.400 C 72.400 265.228,72.597 264.387,72.900 264.265 C 73.199 264.144,73.118 264.050,72.700 264.032 C 72.108 264.005,72.000 264.369,72.000 266.400 M124.667 264.267 C 124.206 264.727,124.375 265.200,125.000 265.200 C 125.330 265.200,125.600 264.930,125.600 264.600 C 125.600 263.975,125.127 263.806,124.667 264.267 M119.600 270.551 C 119.600 277.367,119.736 277.754,122.043 277.527 C 124.025 277.332,124.017 276.400,122.033 276.400 L 120.400 276.400 120.400 270.400 C 120.400 266.667,120.249 264.400,120.000 264.400 C 119.751 264.400,119.600 266.717,119.600 270.551 M78.000 266.633 C 78.000 267.886,78.939 267.749,79.128 266.469 C 79.213 265.892,79.045 265.600,78.628 265.600 C 78.219 265.600,78.000 265.961,78.000 266.633 M232.400 266.433 L 231.400 267.248 232.700 266.614 C 233.415 266.265,234.000 265.894,234.000 265.790 C 234.000 265.392,233.363 265.648,232.400 266.433 M99.467 266.267 C 99.006 266.727,99.175 267.200,99.800 267.200 C 100.130 267.200,100.400 266.930,100.400 266.600 C 100.400 265.975,99.927 265.806,99.467 266.267 M134.000 266.600 C 134.000 266.930,134.180 267.200,134.400 267.200 C 134.620 267.200,134.800 266.930,134.800 266.600 C 134.800 266.270,134.620 266.000,134.400 266.000 C 134.180 266.000,134.000 266.270,134.000 266.600 M84.092 267.675 C 84.339 268.417,85.200 268.540,85.200 267.833 C 85.200 267.485,84.915 267.200,84.567 267.200 C 84.218 267.200,84.005 267.414,84.092 267.675 M229.900 267.829 C 228.405 268.640,228.496 268.978,230.000 268.200 C 230.660 267.859,231.200 267.494,231.200 267.390 C 231.200 267.132,231.157 267.147,229.900 267.829 M93.741 269.700 C 93.880 270.855,93.995 274.095,93.997 276.900 C 93.999 280.031,94.154 282.000,94.400 282.000 C 94.649 282.000,94.800 279.733,94.800 276.000 C 94.800 270.655,95.096 268.915,95.735 270.500 C 95.856 270.799,95.950 270.718,95.968 270.300 C 95.986 269.911,95.715 269.600,95.357 269.600 C 94.921 269.600,94.797 269.385,94.971 268.932 C 95.212 268.302,94.633 267.620,93.844 267.606 C 93.649 267.603,93.602 268.545,93.741 269.700 M100.400 268.200 C 100.400 268.530,100.580 268.800,100.800 268.800 C 101.020 268.800,101.200 268.530,101.200 268.200 C 101.200 267.870,101.020 267.600,100.800 267.600 C 100.580 267.600,100.400 267.870,100.400 268.200 M127.600 268.967 C 127.600 269.535,127.780 270.000,128.000 270.000 C 128.220 270.000,128.400 270.270,128.400 270.600 C 128.400 270.930,128.220 271.200,128.000 271.200 C 127.780 271.200,127.600 271.575,127.600 272.033 C 127.600 272.523,127.806 272.797,128.100 272.699 C 128.417 272.593,128.600 271.749,128.600 270.399 C 128.600 269.048,128.417 268.205,128.100 268.100 C 127.786 267.995,127.600 268.318,127.600 268.967 M222.700 268.629 C 221.205 269.440,221.296 269.778,222.800 269.000 C 223.460 268.659,224.000 268.294,224.000 268.190 C 224.000 267.932,223.957 267.947,222.700 268.629 M227.100 269.429 C 225.605 270.240,225.696 270.578,227.200 269.800 C 227.860 269.459,228.400 269.094,228.400 268.990 C 228.400 268.732,228.357 268.747,227.100 269.429 M219.900 270.229 C 218.405 271.040,218.496 271.378,220.000 270.600 C 220.660 270.259,221.200 269.894,221.200 269.790 C 221.200 269.532,221.157 269.547,219.900 270.229 M217.480 271.643 C 216.991 271.928,207.170 272.020,186.780 271.931 C 161.259 271.819,156.800 271.883,156.800 272.361 C 156.800 272.825,157.582 272.877,161.300 272.663 C 163.775 272.520,177.331 272.403,191.424 272.402 C 213.332 272.400,217.160 272.315,217.824 271.813 C 218.724 271.131,218.527 271.034,217.480 271.643 M72.267 273.067 C 72.120 273.213,72.038 275.328,72.084 277.767 L 72.169 282.200 72.298 278.100 C 72.388 275.250,72.576 273.988,72.914 273.959 C 73.181 273.937,73.985 273.951,74.700 273.990 C 75.647 274.042,76.000 273.890,76.000 273.431 C 76.000 272.782,72.858 272.476,72.267 273.067 M133.800 273.600 C 133.508 274.072,133.887 274.800,134.424 274.800 C 134.631 274.800,134.800 274.440,134.800 274.000 C 134.800 273.156,134.218 272.924,133.800 273.600 M83.352 274.581 C 83.229 274.900,83.246 275.350,83.388 275.581 C 83.854 276.335,84.400 276.021,84.400 275.000 C 84.400 273.916,83.713 273.641,83.352 274.581 M77.200 275.724 C 77.200 276.049,77.483 276.423,77.829 276.556 C 78.268 276.724,78.419 276.596,78.329 276.132 C 78.165 275.285,77.200 274.937,77.200 275.724 M98.000 275.800 C 98.000 276.167,98.194 276.402,98.430 276.323 C 98.666 276.245,98.860 276.009,98.860 275.800 C 98.860 275.591,98.666 275.356,98.430 275.277 C 98.194 275.198,98.000 275.433,98.000 275.800 M98.800 277.400 C 98.800 277.730,99.070 278.000,99.400 278.000 C 99.730 278.000,100.000 277.730,100.000 277.400 C 100.000 277.070,99.730 276.800,99.400 276.800 C 99.070 276.800,98.800 277.070,98.800 277.400 M84.092 278.875 C 84.291 279.473,85.200 279.802,85.200 279.276 C 85.200 279.061,84.915 278.776,84.567 278.643 C 84.177 278.493,83.994 278.582,84.092 278.875 M78.000 279.800 C 78.000 280.130,78.180 280.400,78.400 280.400 C 78.620 280.400,78.800 280.130,78.800 279.800 C 78.800 279.470,78.620 279.200,78.400 279.200 C 78.180 279.200,78.000 279.470,78.000 279.800 M85.200 281.200 C 85.200 281.640,85.380 282.000,85.600 282.000 C 85.820 282.000,86.000 281.640,86.000 281.200 C 86.000 280.760,85.820 280.400,85.600 280.400 C 85.380 280.400,85.200 280.760,85.200 281.200 M125.867 281.067 C 125.418 281.515,125.569 282.000,126.157 282.000 C 126.464 282.000,126.818 281.730,126.945 281.400 C 127.175 280.799,126.381 280.553,125.867 281.067 " stroke="none" fill="#7c7c7c" fill-rule="evenodd"></path></g></svg>